<svg width="19" height="18" viewBox="0 0 19 18" fill="none" xmlns="http://www.w3.org/2000/svg">
<path fill-rule="evenodd" clip-rule="evenodd" d="M5.67505 1.20005C3.17228 1.20005 1.20005 3.21575 1.20005 5.79569C1.20005 7.37555 1.88916 8.82419 3.13904 10.3958C4.39136 11.9704 6.1871 13.645 8.37037 15.6802L8.4035 15.7111L9.49953 16.7269L10.596 15.7029L10.6071 15.6926C12.7968 13.6558 14.5982 11.9795 15.8546 10.4028C17.1085 8.82923 17.8 7.3783 17.8 5.79569C17.8 3.21575 15.8278 1.20005 13.325 1.20005C12.2324 1.20005 11.1702 1.60308 10.3321 2.2813C10.0845 2.48165 9.8568 2.70576 9.65393 2.95014L9.50005 3.13551L9.34616 2.95014C9.1433 2.70576 8.91561 2.48165 8.66803 2.2813C7.82994 1.60308 6.76773 1.20005 5.67505 1.20005ZM0.800049 5.79569C0.800049 3.00451 2.94182 0.800049 5.67505 0.800049C6.8653 0.800049 8.01515 1.23839 8.91966 1.97036C9.12658 2.13781 9.32088 2.32079 9.50005 2.51765C9.67922 2.32079 9.87351 2.13781 10.0804 1.97036C10.9849 1.23839 12.1348 0.800049 13.325 0.800049C16.0583 0.800049 18.2001 3.00451 18.2001 5.79569C18.2001 7.50629 17.4489 9.0439 16.1674 10.6521C14.8904 12.2547 13.0672 13.9505 10.8901 15.9757L10.8691 15.9953L9.50057 17.2732L8.1316 16.0045L8.08711 15.963C5.91631 13.9395 4.0989 12.2453 2.82597 10.6447C1.54855 9.03854 0.800049 7.50331 0.800049 5.79569ZM1.78082 5.79569C1.78082 3.55098 3.48917 1.80005 5.67505 1.80005C6.9173 1.80005 8.12205 2.39716 8.90533 3.34071L9.50005 4.05712L10.0948 3.34071C10.878 2.39716 12.0828 1.80005 13.325 1.80005C15.5109 1.80005 17.2193 3.55098 17.2193 5.79569C17.2193 7.18114 16.6189 8.50058 15.4032 10.0252C14.1786 11.5611 12.4122 13.2062 10.2078 15.2567C10.2078 15.2567 10.2078 15.2567 10.2078 15.2567L9.49805 15.9195L8.79339 15.2665L8.79194 15.2651C6.58784 13.2105 4.8217 11.5635 3.59703 10.0265C2.38116 8.50063 1.78082 7.18115 1.78082 5.79569ZM5.67505 2.20005C3.71945 2.20005 2.18082 3.76241 2.18082 5.79569C2.18082 7.05315 2.72156 8.28595 3.90987 9.77728C5.11192 11.2859 6.85252 12.9104 9.06469 14.9725L9.0657 14.9735L9.49702 15.3732L9.93503 14.9642C12.1474 12.9062 13.8885 11.2833 15.0905 9.77587C16.2785 8.28588 16.8193 7.05313 16.8193 5.79569C16.8193 3.76241 15.2807 2.20005 13.325 2.20005C12.2077 2.20005 11.1137 2.73955 10.4025 3.5962L9.50005 4.68336L8.59755 3.5962C7.88641 2.73955 6.79241 2.20005 5.67505 2.20005Z" fill="#333333"/>
</svg>
