<svg width="16" height="15" viewBox="0 0 16 15" fill="none" xmlns="http://www.w3.org/2000/svg">
<path d="M2 2.66669V0.666687H3.33333V2.66669H5.33333V4.00002H3.33333V6.00002H2V4.00002H0V2.66669H2ZM4 6.66669V4.66669H6V2.66669H10.6667L11.8867 4.00002H14C14.7333 4.00002 15.3333 4.60002 15.3333 5.33335V13.3334C15.3333 14.0667 14.7333 14.6667 14 14.6667H3.33333C2.6 14.6667 2 14.0667 2 13.3334V6.66669H4ZM8.66667 12.6667C10.5067 12.6667 12 11.1734 12 9.33335C12 7.49335 10.5067 6.00002 8.66667 6.00002C6.82667 6.00002 5.33333 7.49335 5.33333 9.33335C5.33333 11.1734 6.82667 12.6667 8.66667 12.6667ZM6.53333 9.33335C6.53333 10.5134 7.48667 11.4667 8.66667 11.4667C9.84667 11.4667 10.8 10.5134 10.8 9.33335C10.8 8.15335 9.84667 7.20002 8.66667 7.20002C7.48667 7.20002 6.53333 8.15335 6.53333 9.33335Z" fill="#333333"/>
</svg>
