<svg width="20" height="17" viewBox="0 0 20 17" fill="none" xmlns="http://www.w3.org/2000/svg">
<path d="M18.0587 1.1624C15.9181 -0.609667 12.7346 -0.290922 10.7698 1.67846L10.0003 2.44876L9.23077 1.67846C7.26987 -0.290922 4.08243 -0.609667 1.94185 1.1624C-0.51123 3.19629 -0.640134 6.84667 1.55514 9.05132L9.11359 16.6329C9.60186 17.1224 10.3948 17.1224 10.8831 16.6329L18.4415 9.05132C20.6407 6.84667 20.5118 3.19629 18.0587 1.1624Z" fill="white"/>
<path fill-rule="evenodd" clip-rule="evenodd" d="M9.13914 1.58849C7.17177 -0.30026 4.04941 -0.582327 1.94185 1.1624C-0.51123 3.19629 -0.640134 6.84667 1.55514 9.05132L9.11359 16.6329C9.60186 17.1224 10.3948 17.1224 10.8831 16.6329L18.4415 9.05132C20.6407 6.84667 20.5118 3.19629 18.0587 1.1624C15.9496 -0.583629 12.8279 -0.299838 10.8572 1.59272C10.8278 1.62094 10.7987 1.64952 10.7698 1.67846L10.0003 2.44876L9.23077 1.67846C9.20052 1.64808 9.16997 1.61809 9.13914 1.58849ZM2.89897 2.31735C1.13239 3.78232 1.03915 6.40654 2.61741 7.99228L9.99833 15.3958L17.3793 7.99228C18.9609 6.40672 18.8683 3.7826 17.1018 2.31754C15.6234 1.09401 13.3115 1.25461 11.8317 2.73789L10.0003 4.57116L8.16782 2.73683C6.69291 1.25553 4.37795 1.09354 2.89897 2.31735Z" fill="#333333"/>
</svg>
