<svg width="17" height="17" viewBox="0 0 17 17" fill="none" xmlns="http://www.w3.org/2000/svg">
<path fill-rule="evenodd" clip-rule="evenodd" d="M15.8913 5.6667H1.1087V14.9394C1.1087 15.5084 1.60508 15.9697 2.21739 15.9697H14.7826C15.3949 15.9697 15.8913 15.5084 15.8913 14.9394V5.6667ZM0 4.6364V14.9394C0 16.0774 0.99276 17 2.21739 17H14.7826C16.0072 17 17 16.0774 17 14.9394V4.6364H0Z" fill="#333333"/>
<path fill-rule="evenodd" clip-rule="evenodd" d="M6.18264 2.06391C5.4652 2.76222 4.98911 3.73444 4.98913 4.76815V8.07007C4.98913 8.07007 4.98913 8.07076 4.43478 8.07073L3.88043 8.07069V4.76817C3.8804 3.4429 4.48703 2.22231 5.38074 1.35243C6.27037 0.486528 7.49264 -0.0750204 8.75321 0.00813854C11.0532 0.159871 13.1195 2.16297 13.1195 4.76815V8.07006C13.1195 8.07006 13.1195 8.07075 12.5652 8.07073L12.0109 8.0707V4.76817C12.0108 2.6554 10.3439 1.14597 8.6747 1.03585C7.82152 0.979568 6.90418 1.36161 6.18264 2.06391Z" fill="#333333"/>
</svg>
