<svg width="12" height="12" viewBox="0 0 12 12" fill="none" xmlns="http://www.w3.org/2000/svg">
<path fill-rule="evenodd" clip-rule="evenodd" d="M0.221803 0.221803C0.517539 -0.0739342 0.997024 -0.0739342 1.29276 0.221803L6 4.92904L10.7072 0.221803C11.003 -0.0739342 11.4825 -0.0739342 11.7782 0.221803C12.0739 0.517539 12.0739 0.997024 11.7782 1.29276L7.07096 6L11.7782 10.7072C12.0739 11.003 12.0739 11.4825 11.7782 11.7782C11.4825 12.0739 11.003 12.0739 10.7072 11.7782L6 7.07096L1.29276 11.7782C0.997024 12.0739 0.517539 12.0739 0.221803 11.7782C-0.0739342 11.4825 -0.0739342 11.003 0.221803 10.7072L4.92904 6L0.221803 1.29276C-0.0739342 0.997024 -0.0739342 0.517539 0.221803 0.221803Z" fill="white"/>
</svg>
