<svg width="24" height="18" viewBox="0 0 24 18" fill="none" xmlns="http://www.w3.org/2000/svg">
<path fill-rule="evenodd" clip-rule="evenodd" d="M18.7776 0.360809L22.1631 9.84873H23.6002V10.4487C23.6002 11.9009 23.0169 13.2923 21.9808 14.3171C20.9449 15.3417 19.5413 15.9162 18.0791 15.9162C16.6169 15.9162 15.2134 15.3417 14.1775 14.3171C13.1414 13.2923 12.5581 11.9009 12.5581 10.4487V9.84873H13.7648L17.4042 1.68914L6.53723 2.66629L10.4258 10.9939H11.4421V11.5939C11.4421 13.0461 10.8588 14.4375 9.82272 15.4623C8.78683 16.4869 7.38324 17.0614 5.92107 17.0614C4.45891 17.0614 3.05532 16.4869 2.01943 15.4623C0.983319 14.4375 0.400025 13.0461 0.400025 11.5939L0.400024 10.9939H1.5528L5.20718 1.58105L18.7776 0.360809ZM2.84006 10.9939H9.10144L5.68258 3.67224L2.84006 10.9939ZM18.3067 2.61178L15.0787 9.84873L20.889 9.84873L18.3067 2.61178ZM22.3573 11.0487L13.801 11.0487C13.9316 11.9571 14.3564 12.8063 15.0213 13.464C15.8312 14.265 16.931 14.7162 18.0791 14.7162C19.2272 14.7162 20.327 14.265 21.1369 13.464C21.8018 12.8063 22.2266 11.9571 22.3573 11.0487ZM1.64293 12.1939C1.77354 13.1022 2.19836 13.9515 2.8633 14.6092C3.67316 15.4102 4.77295 15.8614 5.92107 15.8614C7.06919 15.8614 8.16898 15.4102 8.97885 14.6092C9.64379 13.9514 10.0686 13.1022 10.1992 12.1939H1.64293Z" fill="#828282"/>
</svg>
