<svg width="15" height="15" viewBox="0 0 15 15" fill="none" xmlns="http://www.w3.org/2000/svg">
<path d="M10.9396 0H4.06036C1.82144 0 0 1.82144 0 4.06036V10.9398C0 13.1786 1.82144 15 4.06036 15H10.9398C13.1786 15 15 13.1786 15 10.9398V4.06036C15 1.82144 13.1786 0 10.9396 0ZM7.5 11.6014C5.23842 11.6014 3.39855 9.76158 3.39855 7.5C3.39855 5.23842 5.23842 3.39855 7.5 3.39855C9.76158 3.39855 11.6014 5.23842 11.6014 7.5C11.6014 9.76158 9.76158 11.6014 7.5 11.6014ZM11.6995 4.36581C11.0312 4.36581 10.4876 3.82221 10.4876 3.15388C10.4876 2.48554 11.0312 1.94183 11.6995 1.94183C12.3679 1.94183 12.9116 2.48554 12.9116 3.15388C12.9116 3.82221 12.3679 4.36581 11.6995 4.36581Z" fill="white"/>
<path d="M7.50011 4.2778C5.72353 4.2778 4.27803 5.72319 4.27803 7.49988C4.27803 9.27647 5.72353 10.722 7.50011 10.722C9.27681 10.722 10.7222 9.27647 10.7222 7.49988C10.7222 5.72319 9.27681 4.2778 7.50011 4.2778Z" fill="white"/>
<path d="M11.6995 2.8212C11.5162 2.8212 11.367 2.97043 11.367 3.15376C11.367 3.3371 11.5162 3.48633 11.6995 3.48633C11.883 3.48633 12.0322 3.33721 12.0322 3.15376C12.0322 2.97031 11.883 2.8212 11.6995 2.8212Z" fill="white"/>
</svg>
