<svg width="18" height="21" viewBox="0 0 18 21" fill="none" xmlns="http://www.w3.org/2000/svg">
<path d="M17.2213 15.1166C16.4839 14.3077 15.104 13.0908 15.104 9.10469C15.104 6.07712 13.0245 3.65351 10.2206 3.0589V2.24688C10.2206 1.55837 9.67403 1 8.99995 1C8.32588 1 7.77929 1.55837 7.77929 2.24688V3.0589C4.97536 3.65351 2.89588 6.07712 2.89588 9.10469C2.89588 13.0908 1.51605 14.3077 0.778617 15.1166C0.5496 15.3679 0.448069 15.6683 0.449978 15.9625C0.454176 16.6015 0.945418 17.2094 1.67522 17.2094H16.3247C17.0545 17.2094 17.5461 16.6015 17.5499 15.9625C17.5518 15.6683 17.4503 15.3675 17.2213 15.1166ZM3.02757 15.3391C3.83752 14.2492 4.72306 12.4428 4.72725 9.12729C4.72725 9.11949 4.72496 9.11248 4.72496 9.10469C4.72496 6.69432 6.63878 4.74063 8.99995 4.74063C11.3611 4.74063 13.2749 6.69432 13.2749 9.10469C13.2749 9.11248 13.2726 9.11949 13.2726 9.12729C13.2768 12.4432 14.1624 14.2496 14.9723 15.3391H3.02757Z" fill="#333333" stroke="white" stroke-width="0.7"/>
<path fill-rule="evenodd" clip-rule="evenodd" d="M7.30292 19.7971C7.75301 20.2471 8.36346 20.5 8.99998 20.5C9.6365 20.5 10.2469 20.2471 10.697 19.7971C11.1471 19.347 11.4 18.7365 11.4 18.1H10.4C10.4 18.4713 10.2525 18.8274 9.98993 19.0899C9.72737 19.3525 9.37128 19.5 8.99998 19.5C8.62867 19.5 8.27258 19.3525 8.01003 19.0899C7.74748 18.8274 7.59998 18.4713 7.59998 18.1H6.59998C6.59998 18.7365 6.85283 19.347 7.30292 19.7971Z" fill="#333333"/>
</svg>
