<svg width="16" height="20" viewBox="0 0 16 20" fill="none" xmlns="http://www.w3.org/2000/svg">
<path d="M7.00532 2.69655L7.48584 2.59891V2.10857V1.26552C7.51095 1.05032 7.58678 0.877821 7.67962 0.766889C7.76813 0.661133 7.87414 0.604983 8.01192 0.600203C8.11448 0.596646 8.2311 0.643281 8.34001 0.771036C8.4528 0.90335 8.51725 1.08085 8.51725 1.23397V2.10857V2.61804L9.01999 2.70064C9.64426 2.8032 10.689 3.24221 11.5702 4.1157C12.4347 4.97276 13.1356 6.24069 13.1261 8.02575C13.1153 10.0538 13.4386 11.4212 13.8831 12.4051C14.2718 13.2655 14.7461 13.808 15.0773 14.1868C15.1157 14.2307 15.1522 14.2725 15.1864 14.3123C15.1919 14.3207 15.1987 14.3314 15.2066 14.344C15.2307 14.3827 15.2628 14.4371 15.2947 14.4988C15.327 14.5616 15.3553 14.6246 15.3751 14.6816C15.3848 14.7096 15.3912 14.7327 15.3952 14.7507C15.3992 14.7691 15.3996 14.7777 15.3996 14.7776C15.4125 15.1479 15.1458 15.39 14.8731 15.39C14.7655 15.39 14.3266 15.3907 13.6679 15.3916C12.3463 15.3935 10.1399 15.3966 7.9489 15.3984C6.3067 15.3998 4.67265 15.4005 3.42452 15.3995C2.80037 15.399 2.27324 15.398 1.89002 15.3965C1.69831 15.3957 1.54339 15.3948 1.43065 15.3938C1.37418 15.3932 1.32927 15.3927 1.29605 15.3921C1.26597 15.3916 1.25192 15.3911 1.24826 15.391C1.24738 15.391 1.2471 15.391 1.24735 15.391C1.12375 15.384 0.923706 15.337 0.78094 15.2358C0.716509 15.1902 0.672691 15.1401 0.644833 15.0841C0.618076 15.0304 0.591927 14.9435 0.602323 14.8L0.603187 14.7881L0.603575 14.7761C0.608358 14.6291 0.621688 14.5736 0.634289 14.5398C0.644504 14.5124 0.666078 14.4676 0.736642 14.3818C1.28894 13.9289 1.82446 13.0993 2.21995 12.0604C2.63508 10.9698 2.91974 9.5883 2.89781 8.02055C2.86 5.31612 4.64945 3.1753 7.00532 2.69655Z" stroke="#333333" stroke-width="1.2"/>
<path d="M6 17C6 18.1071 6.89486 19 8.00887 19C9.12289 19 10.0247 18.0896 9.99949 17" stroke="#333333" stroke-width="1.2"/>
</svg>
