<svg width="16" height="20" viewBox="0 0 16 20" fill="none" xmlns="http://www.w3.org/2000/svg">
<path fill-rule="evenodd" clip-rule="evenodd" d="M8.24047 1.72332C8.15666 1.625 8.07523 1.59799 8.01307 1.60014C7.9157 1.60352 7.84228 1.64145 7.77723 1.71917C7.7075 1.80248 7.64622 1.93747 7.62515 2.11177V3.33535L7.14464 3.43299C5.11982 3.84447 3.57802 5.68534 3.61062 8.01694C3.62994 9.39828 3.37917 10.6165 3.0126 11.5795C2.66558 12.4911 2.19334 13.2284 1.69798 13.6373C1.64349 13.7043 1.63037 13.735 1.62533 13.7485C1.61848 13.7669 1.60722 13.806 1.60313 13.9316L1.60274 13.9435L1.60188 13.9554C1.59366 14.0689 1.61454 14.1313 1.6314 14.1652C1.64937 14.2012 1.67866 14.2361 1.72674 14.2702C1.83675 14.3482 1.99672 14.3866 2.09556 14.3922C2.09487 14.3922 2.09527 14.3922 2.09705 14.3923C2.10118 14.3924 2.11279 14.3927 2.13539 14.3931C2.16417 14.3936 2.20324 14.3941 2.25256 14.3945C2.35101 14.3955 2.48641 14.3963 2.65411 14.3969C2.98931 14.3983 3.45045 14.3991 3.99656 14.3996C5.08861 14.4005 6.51835 14.3999 7.95527 14.3986C9.87216 14.397 11.8027 14.3943 12.9591 14.3926C13.5357 14.3918 13.9198 14.3913 14.014 14.3913C14.2057 14.3913 14.4093 14.2193 14.3997 13.9338C14.3997 13.9341 14.3998 13.9338 14.3997 13.9338C14.3996 13.9338 14.3974 13.9141 14.3824 13.871C14.3666 13.8255 14.3435 13.7737 14.3162 13.7209C14.2895 13.669 14.2624 13.6233 14.2421 13.5906C14.2368 13.582 14.232 13.5745 14.228 13.5683C14.1993 13.535 14.1687 13.5 14.1365 13.4631C13.8466 13.1316 13.4244 12.6489 13.0794 11.8853C12.6851 11.0125 12.4009 9.80494 12.4104 8.02214C12.4186 6.48236 11.8148 5.39173 11.0711 4.65451C10.3109 3.90086 9.4108 3.52422 8.88037 3.43707L8.37764 3.35448V2.07974C8.37764 1.96446 8.32817 1.8262 8.24047 1.72332ZM14.7074 13.2056C15.2 12.8631 15.2001 12.8632 15.2001 12.8633L15.2011 12.8647L15.2026 12.8669L15.2069 12.8731L15.2198 12.8924C15.2303 12.9083 15.2444 12.93 15.2609 12.9566C15.2937 13.0092 15.3377 13.0835 15.3826 13.1706C15.4605 13.3215 15.5888 13.5989 15.599 13.8911C15.6302 14.7856 14.9534 15.5913 14.014 15.5913C13.9274 15.5913 13.5716 15.5918 13.0334 15.5926C10.2049 15.5966 2.33815 15.6079 2.02791 15.5903C1.78004 15.5763 1.38046 15.4956 1.03279 15.2492C0.651356 14.9788 0.361741 14.5236 0.404152 13.8812C0.410255 13.7092 0.428785 13.523 0.500824 13.3296C0.575403 13.1294 0.690369 12.966 0.824485 12.8118L0.863077 12.7675L0.909546 12.7315C1.17955 12.5221 1.57079 11.994 1.8911 11.1526C2.20425 10.3299 2.42792 9.26217 2.41074 8.03372C2.37288 5.32605 4.06287 3.08395 6.42515 2.37742V2.05094L6.42791 2.02228C6.49855 1.28792 6.98698 0.435014 7.97147 0.400864C8.47499 0.383398 8.88624 0.631099 9.1537 0.944849C9.41726 1.25404 9.57764 1.66521 9.57764 2.07974V2.37353C10.2975 2.59562 11.1688 3.06163 11.9159 3.80228C12.8647 4.74277 13.6204 6.13437 13.6104 8.02852C13.6016 9.67965 13.8648 10.7091 14.173 11.3913C14.4411 11.9846 14.7502 12.3398 15.0355 12.6677C15.079 12.7177 15.1219 12.767 15.164 12.8164L15.1832 12.8389L15.2001 12.8633L14.7074 13.2056ZM8.00892 18.4C8.79584 18.4 9.41686 17.7571 9.39969 17.0139L10.5994 16.9862C10.6325 18.4221 9.45002 19.6 8.00892 19.6C6.56566 19.6 5.40004 18.4406 5.40004 17H6.60004C6.60004 17.7737 7.22415 18.4 8.00892 18.4Z" fill="#333333"/>
</svg>
