<svg width="15" height="17" viewBox="0 0 15 17" fill="none" xmlns="http://www.w3.org/2000/svg">
<path fill-rule="evenodd" clip-rule="evenodd" d="M7.50002 6.94999C9.12384 6.94999 10.4402 5.62924 10.4402 4C10.4402 2.37076 9.12384 1.05 7.50002 1.05C5.87619 1.05 4.55982 2.37076 4.55982 4C4.55982 5.62924 5.87619 6.94999 7.50002 6.94999ZM7.50002 7.99999C9.70182 7.99999 11.4867 6.20913 11.4867 4C11.4867 1.79086 9.70182 0 7.50002 0C5.29822 0 3.5133 1.79086 3.5133 4C3.5133 6.20913 5.29822 7.99999 7.50002 7.99999Z" fill="#333333"/>
<path fill-rule="evenodd" clip-rule="evenodd" d="M7.5 10.525C3.93584 10.525 1.04651 13.424 1.04651 17H0C0 12.8441 3.35786 9.47501 7.5 9.47501C11.6421 9.47501 15 12.8441 15 17H13.9535C13.9535 13.424 11.0642 10.525 7.5 10.525Z" fill="#333333"/>
</svg>
