<svg width="17" height="19" viewBox="0 0 17 19" fill="none" xmlns="http://www.w3.org/2000/svg">
<path fill-rule="evenodd" clip-rule="evenodd" d="M8.50002 7.94999C10.1238 7.94999 11.4402 6.62924 11.4402 5C11.4402 3.37076 10.1238 2.05 8.50002 2.05C6.87619 2.05 5.55982 3.37076 5.55982 5C5.55982 6.62924 6.87619 7.94999 8.50002 7.94999ZM8.50002 8.99999C10.7018 8.99999 12.4867 7.20913 12.4867 5C12.4867 2.79086 10.7018 1 8.50002 1C6.29822 1 4.5133 2.79086 4.5133 5C4.5133 7.20913 6.29822 8.99999 8.50002 8.99999Z" fill="#2F80ED"/>
<path fill-rule="evenodd" clip-rule="evenodd" d="M8.5 11.525C4.93584 11.525 2.04651 14.424 2.04651 18H1C1 13.8441 4.35786 10.475 8.5 10.475C12.6421 10.475 16 13.8441 16 18H14.9535C14.9535 14.424 12.0642 11.525 8.5 11.525Z" fill="#2F80ED"/>
<path fill-rule="evenodd" clip-rule="evenodd" d="M8.50002 7.94999C10.1238 7.94999 11.4402 6.62924 11.4402 5C11.4402 3.37076 10.1238 2.05 8.50002 2.05C6.87619 2.05 5.55982 3.37076 5.55982 5C5.55982 6.62924 6.87619 7.94999 8.50002 7.94999ZM8.50002 8.99999C10.7018 8.99999 12.4867 7.20913 12.4867 5C12.4867 2.79086 10.7018 1 8.50002 1C6.29822 1 4.5133 2.79086 4.5133 5C4.5133 7.20913 6.29822 8.99999 8.50002 8.99999Z" stroke="#2F80ED" stroke-width="0.3" stroke-linecap="round"/>
<path fill-rule="evenodd" clip-rule="evenodd" d="M8.5 11.525C4.93584 11.525 2.04651 14.424 2.04651 18H1C1 13.8441 4.35786 10.475 8.5 10.475C12.6421 10.475 16 13.8441 16 18H14.9535C14.9535 14.424 12.0642 11.525 8.5 11.525Z" stroke="#2F80ED" stroke-width="0.3" stroke-linecap="round"/>
</svg>
