<svg width="19" height="19" viewBox="0 0 19 19" fill="none" xmlns="http://www.w3.org/2000/svg">
<path fill-rule="evenodd" clip-rule="evenodd" d="M11.1922 12.6064C10.0236 13.4816 8.5723 14 7 14C3.13401 14 0 10.866 0 7C0 3.13401 3.13401 0 7 0C10.866 0 14 3.13401 14 7C14 8.5723 13.4816 10.0236 12.6064 11.1922L17.7782 16.364C18.1687 16.7545 18.1687 17.3877 17.7782 17.7782C17.3876 18.1687 16.7545 18.1687 16.364 17.7782L11.1922 12.6064ZM12 7C12 9.7614 9.7614 12 7 12C4.23858 12 2 9.7614 2 7C2 4.23858 4.23858 2 7 2C9.7614 2 12 4.23858 12 7Z" fill="#333333"/>
</svg>
