<svg width="17" height="17" viewBox="0 0 17 17" fill="none" xmlns="http://www.w3.org/2000/svg">
<path fill-rule="evenodd" clip-rule="evenodd" d="M6.48684 1.33784C3.64548 1.33784 1.3421 3.63389 1.3421 6.46621C1.3421 9.29854 3.64548 11.5946 6.48684 11.5946C9.3282 11.5946 11.6316 9.29854 11.6316 6.46621C11.6316 3.63389 9.3282 1.33784 6.48684 1.33784ZM0 6.46621C0 2.89502 2.90426 0 6.48684 0C10.0694 0 12.9737 2.89502 12.9737 6.46621C12.9737 8.00869 12.4319 9.42502 11.5276 10.5364L16.7824 15.338C17.0556 15.5876 17.074 16.0108 16.8236 16.2831C16.5732 16.5554 16.1487 16.5738 15.8755 16.3242L10.5785 11.4841C9.46232 12.3896 8.03818 12.9324 6.48684 12.9324C2.90426 12.9324 0 10.0374 0 6.46621Z" fill="#333333"/>
</svg>
