<svg width="13" height="14" viewBox="0 0 13 14" fill="none" xmlns="http://www.w3.org/2000/svg">
<path d="M10.625 9.54217C10.0867 9.54217 9.605 9.74548 9.23667 10.064L4.18625 7.25151C4.22167 7.09563 4.25 6.93976 4.25 6.77711C4.25 6.61446 4.22167 6.45858 4.18625 6.30271L9.18 3.51732C9.5625 3.85617 10.0654 4.06627 10.625 4.06627C11.8008 4.06627 12.75 3.15813 12.75 2.03313C12.75 0.908133 11.8008 0 10.625 0C9.44917 0 8.5 0.908133 8.5 2.03313C8.5 2.19578 8.52833 2.35166 8.56375 2.50753L3.57 5.29292C3.1875 4.95407 2.68458 4.74398 2.125 4.74398C0.949167 4.74398 0 5.65211 0 6.77711C0 7.90211 0.949167 8.81024 2.125 8.81024C2.68458 8.81024 3.1875 8.60015 3.57 8.26129L8.61333 11.0806C8.57792 11.2229 8.55667 11.372 8.55667 11.5211C8.55667 12.6122 9.48458 13.5 10.625 13.5C11.7654 13.5 12.6933 12.6122 12.6933 11.5211C12.6933 10.43 11.7654 9.54217 10.625 9.54217Z" fill="#333333"/>
</svg>
