<svg width="16" height="15" viewBox="0 0 16 15" fill="none" xmlns="http://www.w3.org/2000/svg">
<path d="M7.45243 1.02453C7.62861 0.629284 8.18962 0.629285 8.3658 1.02453L10.052 4.80738C10.1247 4.97039 10.2787 5.08232 10.4562 5.10105L14.575 5.53576C15.0053 5.58118 15.1787 6.11473 14.8572 6.40443L11.7806 9.17707C11.648 9.29655 11.5892 9.47764 11.6262 9.65224L12.4855 13.7038C12.5753 14.1271 12.1214 14.4568 11.7466 14.2406L8.15892 12.1714C8.00432 12.0822 7.81391 12.0822 7.6593 12.1714L4.07163 14.2406C3.69678 14.4568 3.24291 14.1271 3.3327 13.7038L4.19203 9.65224C4.22906 9.47764 4.17022 9.29655 4.03764 9.17707L0.961003 6.40443C0.639546 6.11473 0.812908 5.58118 1.24325 5.53576L5.36202 5.10105C5.53951 5.08232 5.69356 4.97039 5.76622 4.80738L7.45243 1.02453Z" fill="#F2994A"/>
</svg>
