<svg width="36" height="36" viewBox="0 0 36 36" fill="none" xmlns="http://www.w3.org/2000/svg">
<circle cx="18" cy="18" r="18" fill="#2F80ED"/>
<path d="M20.7517 12H15.2483C13.4572 12 12 13.4572 12 15.2483V20.7518C12 22.5428 13.4572 24 15.2483 24H20.7518C22.5428 24 24 22.5428 24 20.7518V15.2483C24 13.4572 22.5428 12 20.7517 12ZM18 21.2812C16.1907 21.2812 14.7188 19.8093 14.7188 18C14.7188 16.1907 16.1907 14.7188 18 14.7188C19.8093 14.7188 21.2812 16.1907 21.2812 18C21.2812 19.8093 19.8093 21.2812 18 21.2812ZM21.3596 15.4926C20.825 15.4926 20.3901 15.0578 20.3901 14.5231C20.3901 13.9884 20.825 13.5535 21.3596 13.5535C21.8943 13.5535 22.3293 13.9884 22.3293 14.5231C22.3293 15.0578 21.8943 15.4926 21.3596 15.4926Z" fill="white"/>
<path d="M18.0001 15.4222C16.5788 15.4222 15.4224 16.5786 15.4224 17.9999C15.4224 19.4212 16.5788 20.5776 18.0001 20.5776C19.4214 20.5776 20.5778 19.4212 20.5778 17.9999C20.5778 16.5786 19.4214 15.4222 18.0001 15.4222Z" fill="white"/>
<path d="M21.3596 14.257C21.213 14.257 21.0936 14.3763 21.0936 14.523C21.0936 14.6697 21.213 14.7891 21.3596 14.7891C21.5064 14.7891 21.6258 14.6698 21.6258 14.523C21.6258 14.3763 21.5064 14.257 21.3596 14.257Z" fill="white"/>
</svg>
