<svg width="35" height="35" viewBox="0 0 35 35" fill="none" xmlns="http://www.w3.org/2000/svg">
<circle cx="17.5" cy="17.5" r="17.5" fill="#2F80ED"/>
<path d="M23.4212 12.3633C23.055 12.0434 21.5731 11.0236 18.2689 11.0099C18.2689 11.0099 14.3737 10.7884 12.4765 12.4398C11.4212 13.4405 11.0493 14.9086 11.0089 16.7268C10.9686 18.5449 10.9196 21.9515 14.3823 22.8756H14.3852L14.3823 24.2864C14.3823 24.2864 14.3592 24.8578 14.7571 24.9726C15.2357 25.1148 15.5183 24.6801 15.9767 24.2125C16.2276 23.9555 16.5736 23.5782 16.8359 23.2912C19.2059 23.4798 21.0253 23.0478 21.2328 22.985C21.7115 22.8373 24.4188 22.5092 24.8571 19.1026C25.3126 15.5867 24.6379 13.3666 23.4212 12.3633ZM23.822 18.8456C23.45 21.689 21.2559 21.8695 20.8523 21.9925C20.6793 22.0445 19.0791 22.4218 17.0695 22.2987C17.0695 22.2987 15.5702 24.013 15.1031 24.4586C14.9503 24.6035 14.7831 24.5898 14.786 24.3028C14.786 24.1141 14.7975 21.9597 14.7975 21.9597C14.7946 21.9597 14.7946 21.9597 14.7975 21.9597C11.8624 21.1887 12.0354 18.2879 12.0671 16.7705C12.0988 15.2531 12.4015 14.0091 13.2953 13.1725C14.9013 11.7918 18.2083 11.9969 18.2083 11.9969C21.0022 12.0078 22.34 12.8062 22.6514 13.0741C23.6807 13.9107 24.2054 15.912 23.822 18.8456ZM19.8143 16.6365C19.8258 16.8717 19.4539 16.8881 19.4424 16.6529C19.4107 16.0515 19.1137 15.7589 18.5024 15.7261C18.2545 15.7124 18.2775 15.3597 18.5226 15.3734C19.327 15.4144 19.7739 15.8519 19.8143 16.6365ZM20.3996 16.9455C20.4284 15.7863 19.6644 14.8786 18.2141 14.7774C17.969 14.761 17.995 14.4083 18.2401 14.4247C19.9123 14.5395 20.8032 15.6304 20.7715 16.9537C20.7686 17.1888 20.3938 17.1779 20.3996 16.9455ZM21.7547 17.3118C21.7576 17.547 21.3828 17.5497 21.3828 17.3146C21.3655 15.0863 19.7999 13.8724 17.8998 13.8588C17.6548 13.856 17.6548 13.5061 17.8998 13.5061C20.0248 13.5197 21.7345 14.9114 21.7547 17.3118ZM21.4289 19.9939V19.9994C21.1175 20.5189 20.5351 21.093 19.9354 20.9098L19.9296 20.9016C19.3213 20.7403 17.8883 20.0404 16.983 19.3569C16.5159 19.0069 16.0892 18.5941 15.7605 18.1977C15.4635 17.845 15.1637 17.4267 14.8725 16.9236C14.2583 15.871 14.1228 15.4008 14.1228 15.4008C13.9297 14.8321 14.5322 14.2798 15.0829 13.9845H15.0887C15.354 13.8533 15.6077 13.897 15.7778 14.0912C15.7778 14.0912 16.1353 14.4958 16.2881 14.6954C16.4323 14.8813 16.6255 15.1793 16.7264 15.3461C16.9022 15.6441 16.7927 15.9476 16.6197 16.0733L16.2737 16.3358C16.0978 16.4698 16.1209 16.7186 16.1209 16.7186C16.1209 16.7186 16.6341 18.5586 18.5515 19.0234C18.5515 19.0234 18.8138 19.0452 18.9551 18.8784L19.2319 18.5504C19.3645 18.3863 19.6846 18.2824 19.9988 18.4492C20.4227 18.6761 20.9618 19.0288 21.3193 19.3487C21.5212 19.5045 21.5673 19.7424 21.4289 19.9939Z" fill="white"/>
</svg>
