<svg width="35" height="35" viewBox="0 0 35 35" fill="none" xmlns="http://www.w3.org/2000/svg">
<circle cx="17.5" cy="17.5" r="17.5" fill="#2F80ED"/>
<path d="M22.9031 12.0344C21.5938 10.7219 19.85 10 17.9969 10C14.1719 10 11.0594 13.1125 11.0594 16.9375C11.0594 18.1594 11.3781 19.3531 11.9844 20.4062L11 24L14.6781 23.0344C15.6906 23.5875 16.8313 23.8781 17.9938 23.8781H17.9969C21.8188 23.8781 25 20.7656 25 16.9406C25 15.0875 24.2125 13.3469 22.9031 12.0344ZM17.9969 22.7094C16.9594 22.7094 15.9437 22.4312 15.0594 21.9062L14.85 21.7812L12.6688 22.3531L13.25 20.225L13.1125 20.0063C12.5344 19.0875 12.2313 18.0281 12.2313 16.9375C12.2313 13.7594 14.8187 11.1719 18 11.1719C19.5406 11.1719 20.9875 11.7719 22.075 12.8625C23.1625 13.9531 23.8313 15.4 23.8281 16.9406C23.8281 20.1219 21.175 22.7094 17.9969 22.7094ZM21.1594 18.3906C20.9875 18.3031 20.1344 17.8844 19.975 17.8281C19.8156 17.7688 19.7 17.7406 19.5844 17.9156C19.4688 18.0906 19.1375 18.4781 19.0344 18.5969C18.9344 18.7125 18.8313 18.7281 18.6594 18.6406C17.6406 18.1313 16.9719 17.7312 16.3 16.5781C16.1219 16.2719 16.4781 16.2937 16.8094 15.6312C16.8656 15.5156 16.8375 15.4156 16.7937 15.3281C16.75 15.2406 16.4031 14.3875 16.2594 14.0406C16.1188 13.7031 15.975 13.75 15.8688 13.7438C15.7688 13.7375 15.6531 13.7375 15.5375 13.7375C15.4219 13.7375 15.2344 13.7812 15.075 13.9531C14.9156 14.1281 14.4688 14.5469 14.4688 15.4C14.4688 16.2531 15.0906 17.0781 15.175 17.1938C15.2625 17.3094 16.3969 19.0594 18.1375 19.8125C19.2375 20.2875 19.6687 20.3281 20.2188 20.2469C20.5531 20.1969 21.2437 19.8281 21.3875 19.4219C21.5312 19.0156 21.5312 18.6687 21.4875 18.5969C21.4469 18.5188 21.3313 18.475 21.1594 18.3906Z" fill="white"/>
</svg>
