<svg width="14" height="14" viewBox="0 0 14 14" fill="none" xmlns="http://www.w3.org/2000/svg">
<path d="M6.99943 2.70667C8.31387 2.70667 9.20054 3.27444 9.70609 3.74889L11.6817 1.82C10.4683 0.692222 8.88943 0 6.99943 0C4.26165 0 1.8972 1.57111 0.746094 3.85778L3.00943 5.61556C3.5772 3.92778 5.14832 2.70667 6.99943 2.70667Z" fill="#EA4335"/>
<path d="M13.72 7.15548C13.72 6.57992 13.6733 6.15992 13.5722 5.72437H7V8.32214H10.8578C10.78 8.9677 10.36 9.93992 9.42667 10.5933L11.6356 12.3044C12.9578 11.0833 13.72 9.28659 13.72 7.15548Z" fill="#4285F4"/>
<path d="M3.01778 8.38433C2.87 7.94878 2.78444 7.48211 2.78444 6.99989C2.78444 6.51767 2.87 6.051 3.01 5.61544L0.746667 3.85767C0.272222 4.80655 0 5.87211 0 6.99989C0 8.12767 0.272222 9.19322 0.746667 10.1421L3.01778 8.38433Z" fill="#FBBC05"/>
<path d="M6.99946 14.0001C8.88946 14.0001 10.4761 13.3779 11.635 12.3045L9.42613 10.5934C8.83502 11.0056 8.04168 11.2934 6.99946 11.2934C5.14835 11.2934 3.57724 10.0723 3.01724 8.38452L0.753906 10.1423C1.90502 12.429 4.26168 14.0001 6.99946 14.0001Z" fill="#34A853"/>
</svg>
