<svg width="16" height="16" viewBox="0 0 16 16" fill="none" xmlns="http://www.w3.org/2000/svg">
<path fill-rule="evenodd" clip-rule="evenodd" d="M4.66675 2C4.29856 2 4.00008 2.29848 4.00008 2.66667V3.44714C3.22329 3.72169 2.66675 4.46252 2.66675 5.33333C2.66675 6.20415 3.22329 6.945 4.00008 7.21953V13.3333C4.00008 13.7015 4.29856 14 4.66675 14C5.03493 14 5.33341 13.7015 5.33341 13.3333V7.21953C6.11021 6.945 6.66675 6.20415 6.66675 5.33333C6.66675 4.46252 6.11021 3.72169 5.33341 3.44714V2.66667C5.33341 2.29848 5.03493 2 4.66675 2ZM5.33341 5.33333C5.33341 5.70153 5.03493 6 4.66675 6C4.29856 6 4.00008 5.70153 4.00008 5.33333C4.00008 4.96515 4.29856 4.66667 4.66675 4.66667C5.03493 4.66667 5.33341 4.96515 5.33341 5.33333Z" fill="#2F80ED"/>
<path fill-rule="evenodd" clip-rule="evenodd" d="M11.3333 2C10.9651 2 10.6666 2.29848 10.6666 2.66667V8.1138C9.88979 8.38833 9.33325 9.1292 9.33325 10C9.33325 10.8708 9.88979 11.6117 10.6666 11.8862V13.3333C10.6666 13.7015 10.9651 14 11.3333 14C11.7015 14 11.9999 13.7015 11.9999 13.3333V11.8862C12.7767 11.6117 13.3333 10.8708 13.3333 10C13.3333 9.1292 12.7767 8.38833 11.9999 8.1138V2.66667C11.9999 2.29848 11.7015 2 11.3333 2ZM11.9999 10C11.9999 10.3682 11.7015 10.6667 11.3333 10.6667C10.9651 10.6667 10.6666 10.3682 10.6666 10C10.6666 9.6318 10.9651 9.33333 11.3333 9.33333C11.7015 9.33333 11.9999 9.6318 11.9999 10Z" fill="#2F80ED"/>
</svg>
